<svg id="Layer_7" data-name="Layer 7" xmlns="http://www.w3.org/2000/svg" viewBox="0 0 1177.24 757.93"><defs><style>.cls-1{fill:#999;}.cls-2{fill:#333;}.cls-3{fill:#736357;}.cls-4{fill:#534741;}.cls-5{opacity:0.83;}.cls-6{fill:#ccc;}.cls-7{fill:#39b54a;}.cls-8{opacity:0.3;}.cls-9{fill:#57eb74;}.cls-10{fill:#009245;}.cls-11,.cls-13{fill:none;stroke-linecap:round;stroke-miterlimit:10;}.cls-11{stroke:#b3b3b3;stroke-width:20px;}.cls-12{fill:gray;}.cls-13{stroke:lime;stroke-width:8px;}.cls-14{fill:lime;}.cls-15{fill:#fcee21;}.cls-16{fill:#662d91;}</style></defs><title>hp-illustration</title><circle class="cls-1" cx="260.43" cy="610.67" r="9.27"/><circle class="cls-1" cx="269.33" cy="644.77" r="9.27"/><circle class="cls-1" cx="287.86" cy="626.24" r="9.27"/><path class="cls-2" d="M606.67,756.28c58.75,32.73,190.59,95.84,369.16,94.88,174.87-.93,303.86-62.81,362.49-95.62l.74,112.67c-58.63,32.82-187.62,94.7-362.49,95.63C798,964.79,666.16,901.68,607.41,869Z" transform="translate(-386.15 -214.92)"/><path class="cls-2" d="M972.55,972.85c-162.79,0-290.67-52.11-369.52-96l-4.59-2.56-.87-133.35,13.48,7.51c77,42.88,201.84,93.75,360.76,93.75h4c158-.84,282-51.84,358.14-94.48l13.3-7.44.88,133.23-4.64,2.6c-78,43.67-205,95.91-366.84,96.77ZM616.37,863.62c78,42.69,202.47,92,360.15,91.22,154.84-.83,277-49.82,353.51-91.91l-.61-92.28c-78.78,42-200.6,88.7-353.54,89.51C820.18,861,696,814,615.77,771.47Z" transform="translate(-386.15 -214.92)"/><path class="cls-3" d="M605.19,608.76q.73,73.77,1.48,147.52c58.75,32.73,190.59,95.84,369.16,94.88,21.86-.11,43-1.18,63.38-3a754.34,754.34,0,0,0,299.11-92.59q-.75-76-1.48-152c-51.64,33.3-178.81,105.5-356.56,109C792.51,716.22,656.92,641.08,605.19,608.76Z" transform="translate(-386.15 -214.92)"/><path class="cls-4" d="M971.81,860.17c-162.79,0-290.67-52.1-369.52-96l-4.57-2.54L596,592.43l13.93,8.7a677.28,677.28,0,0,0,134.74,64.53A670.18,670.18,0,0,0,980.1,703.55a670.71,670.71,0,0,0,222.6-42.74A676.77,676.77,0,0,0,1332,596l13.72-8.85,1.69,173.63-4.66,2.6A765.82,765.82,0,0,1,1040,857.1c-21.22,1.92-42.8,2.95-64.14,3.06ZM615.61,750.94c77.31,42.33,200.38,91.23,356.2,91.23h4c20.84-.11,41.91-1.11,62.61-3a747.89,747.89,0,0,0,290.88-88.9L1328,619.75a696.67,696.67,0,0,1-119,57.92,687.34,687.34,0,0,1-470.27,5,697.55,697.55,0,0,1-124.39-57.78Z" transform="translate(-386.15 -214.92)"/><g class="cls-5"><path class="cls-6" d="M973.2,847.5q-7.91,0-15.76-.06a11.5,11.5,0,0,1,.09-23h.1c16.45.13,33.23,0,49.71-.24h.2a11.5,11.5,0,0,1,.2,23C996.31,847.4,984.69,847.5,973.2,847.5Zm-65.67-1.1h-.39c-16.81-.56-33.72-1.36-50.27-2.36a11.5,11.5,0,0,1,1.39-23c16.34,1,33,1.78,49.66,2.34a11.5,11.5,0,0,1-.39,23Zm150-.72a11.5,11.5,0,0,1-.5-23c16.62-.73,33.32-1.68,49.63-2.84a11.5,11.5,0,0,1,1.62,22.95c-16.51,1.17-33.42,2.13-50.24,2.87ZM807.7,840.33c-.34,0-.69,0-1,0-16.9-1.51-33.75-3.26-50.1-5.22a11.5,11.5,0,0,1,2.73-22.83c16.12,1.93,32.74,3.65,49.41,5.14a11.5,11.5,0,0,1-1,23Zm349.59-1.75a11.5,11.5,0,0,1-1.13-23c16.67-1.67,33.27-3.59,49.33-5.71a11.5,11.5,0,0,1,3,22.8c-16.3,2.16-33.14,4.1-50,5.8A11.27,11.27,0,0,1,1157.29,838.58Zm-448.9-10.19a11.68,11.68,0,0,1-1.76-.13c-17-2.61-33.69-5.51-49.72-8.61a11.5,11.5,0,1,1,4.37-22.58c15.74,3,32.18,5.89,48.85,8.46a11.5,11.5,0,0,1-1.74,22.86Zm548.06-3a11.5,11.5,0,0,1-1.89-22.85c16.66-2.79,33-5.88,48.69-9.16a11.5,11.5,0,1,1,4.72,22.51c-16,3.35-32.64,6.49-49.61,9.34A11.28,11.28,0,0,1,1256.45,825.43ZM610.22,809.3a11.38,11.38,0,0,1-2.7-.32c-17-4.1-33.49-8.54-48.92-13.19a11.5,11.5,0,0,1,6.64-22c15,4.53,31,8.85,47.66,12.85a11.5,11.5,0,0,1-2.68,22.68Zm744.08-4.54a11.5,11.5,0,0,1-2.9-22.63c16.59-4.34,32.5-9,47.29-13.89a11.5,11.5,0,0,1,7.2,21.85c-15.25,5-31.62,9.83-48.68,14.29A11.69,11.69,0,0,1,1354.3,804.76ZM514.59,780.13a11.47,11.47,0,0,1-4.15-.78,444.09,444.09,0,0,1-46.79-21.07,11.5,11.5,0,1,1,10.74-20.34,420.11,420.11,0,0,0,44.36,20,11.5,11.5,0,0,1-4.16,22.23Zm934.51-7.06a11.5,11.5,0,0,1-4.56-22.06,342.89,342.89,0,0,0,43.07-21.92,11.5,11.5,0,0,1,12,19.62,367,367,0,0,1-46,23.42A11.4,11.4,0,0,1,1449.1,773.07ZM427.31,732.24a11.5,11.5,0,0,1-7.42-2.72c-16.57-14-27.7-28.93-33.09-44.32a11.5,11.5,0,1,1,21.71-7.59c4,11.46,12.84,23,26.23,34.35a11.5,11.5,0,0,1-7.43,20.28Zm1105.16-13a11.5,11.5,0,0,1-8.58-19.15c11-12.28,16.51-24.7,16.51-36.89,0-9.3-3.24-18.77-9.63-28.14a11.5,11.5,0,1,1,19-13c9,13.26,13.62,27.09,13.62,41.09,0,18-7.52,35.57-22.34,52.2A11.49,11.49,0,0,1,1532.47,719.29ZM402.93,645.19A11.5,11.5,0,0,1,393,627.94c7.87-13.63,20.49-26.84,37.5-39.27a11.5,11.5,0,1,1,13.57,18.57c-14.41,10.53-24.89,21.37-31.15,32.2A11.5,11.5,0,0,1,402.93,645.19ZM1504.23,606a11.51,11.51,0,0,1-6.51-2,291.1,291.1,0,0,0-41.92-23.44,11.5,11.5,0,1,1,9.71-20.85A315.14,315.14,0,0,1,1510.75,585a11.5,11.5,0,0,1-6.52,21ZM480.33,584.18a11.5,11.5,0,0,1-5-21.85,496.63,496.63,0,0,1,47.23-19.71,11.5,11.5,0,1,1,7.83,21.63,475.84,475.84,0,0,0-45,18.78A11.48,11.48,0,0,1,480.33,584.18Zm934-21.26a11.52,11.52,0,0,1-3.81-.65c-14.62-5.13-30.43-10.06-47-14.65a11.5,11.5,0,1,1,6.14-22.16c17.07,4.72,33.38,9.8,48.49,15.11a11.5,11.5,0,0,1-3.81,22.35ZM574.07,549.66a11.5,11.5,0,0,1-3.14-22.56c15.53-4.42,32-8.62,49.06-12.5a11.5,11.5,0,0,1,5.1,22.43c-16.62,3.78-32.73,7.89-47.87,12.19A11.46,11.46,0,0,1,574.07,549.66ZM1318,536a12,12,0,0,1-2.5-.27c-15.57-3.46-31.91-6.71-48.58-9.68a11.5,11.5,0,1,1,4-22.64c17,3,33.65,6.34,49.53,9.86A11.5,11.5,0,0,1,1318,536Zm-646.48-8.7a11.5,11.5,0,0,1-2-22.82c16.09-2.94,32.84-5.67,49.78-8.12a11.5,11.5,0,1,1,3.29,22.76c-16.66,2.41-33.13,5.1-48.94,8A11.42,11.42,0,0,1,671.53,527.3Zm548-8.91a12.56,12.56,0,0,1-1.61-.11c-16-2.26-32.62-4.31-49.27-6.11a11.5,11.5,0,0,1,2.46-22.87c16.9,1.83,33.73,3.91,50,6.2a11.5,11.5,0,0,1-1.59,22.89Zm-449.06-5.5A11.5,11.5,0,0,1,769.24,490c16.39-1.83,33.25-3.45,50.13-4.83a11.5,11.5,0,1,1,1.87,22.93c-16.65,1.35-33.29,3-49.45,4.76A11.15,11.15,0,0,1,770.5,512.89Zm349.62-5.27c-.3,0-.6,0-.91,0-16.29-1.27-33-2.34-49.6-3.18a11.5,11.5,0,0,1,1.16-23c16.83.85,33.73,1.93,50.23,3.22a11.5,11.5,0,0,1-.88,23ZM870.2,504.73a11.5,11.5,0,0,1-.6-23c16.55-.88,33.47-1.56,50.28-2a11.5,11.5,0,0,1,.62,23c-16.6.45-33.32,1.12-49.67,2Zm150-2.17h-.28c-15.43-.37-31.16-.56-46.73-.56h-3a11.5,11.5,0,0,1,0-23h3c15.75,0,31.66.19,47.27.56a11.5,11.5,0,0,1-.27,23Z" transform="translate(-386.15 -214.92)"/><path class="cls-6" d="M602,571.5a11.5,11.5,0,0,1-9.86-17.4l16.35-27.35L593,507.13a11.5,11.5,0,1,1,18-14.26l25.34,32.07-24.49,41A11.5,11.5,0,0,1,602,571.5Z" transform="translate(-386.15 -214.92)"/><path class="cls-6" d="M1380,587.5a11.5,11.5,0,0,1-6.48-21l31.41-21.38-6.1-24.32a11.5,11.5,0,0,1,22.32-5.58l10,39.87-44.68,30.43A11.5,11.5,0,0,1,1380,587.5Z" transform="translate(-386.15 -214.92)"/><path class="cls-6" d="M466,786.5a11.5,11.5,0,0,1-11.5-11.42l-.27-36.61,34.67-13.22a11.51,11.51,0,1,1,8.2,21.5l-19.75,7.53.15,20.64a11.5,11.5,0,0,1-11.42,11.58Z" transform="translate(-386.15 -214.92)"/><path class="cls-6" d="M979,881.5a11.46,11.46,0,0,1-9.14-4.51l-31.58-41.3,25.88-31.05a11.5,11.5,0,0,1,17.66,14.72l-14.12,16.95L988.13,863A11.5,11.5,0,0,1,979,881.5Z" transform="translate(-386.15 -214.92)"/><path class="cls-6" d="M1477,786.5a11.58,11.58,0,0,1-3.73-.62l-40.72-14,0-35.9A11.5,11.5,0,0,1,1444,724.5h0A11.5,11.5,0,0,1,1455.5,736l0,19.51,25.2,8.63A11.5,11.5,0,0,1,1477,786.5Z" transform="translate(-386.15 -214.92)"/></g><path class="cls-7" d="M1328.08,550.92c-29.25-33.92-93.36-63.87-185.41-81.8s-194.58-20.45-286-10-171.61,33.8-219,67.65c-29.63,21.15-42.93,43.89-41.6,66.25.8,13.42,6.86,26.7,17.83,39.42,29.25,33.93,93.36,63.88,185.41,81.81,56.59,11,117.16,16.21,176.66,16.16-20-8.24-32.14-14.22-36.71-16.53C924,706.15,852.45,670,859.81,641.5c1.12-4.31,5.44-21,49.12-24.34,48.39-3.65,109,11.93,121.88,15.24,85.79,22.05,130.41,57,140.78,65.12a127.78,127.78,0,0,1,10.91,9.6c49.87-12.36,92.23-29.4,121.81-50.52C1351.71,622.76,1357.33,584.85,1328.08,550.92Z" transform="translate(-386.15 -214.92)"/><path class="cls-7" d="M1030.81,632.4c-12.9-3.31-73.49-18.89-121.88-15.24-43.68,3.3-48,20-49.12,24.34C852.45,670,924,706.15,939.28,713.86c4.57,2.31,16.66,8.29,36.71,16.53a979.75,979.75,0,0,0,109.3-6.14,770.8,770.8,0,0,0,97.21-17.13,127.78,127.78,0,0,0-10.91-9.6C1161.22,689.4,1116.6,654.45,1030.81,632.4Z" transform="translate(-386.15 -214.92)"/><path class="cls-8" d="M1030.81,632.4c-12.9-3.31-73.49-18.89-121.88-15.24-43.68,3.3-48,20-49.12,24.34C852.45,670,924,706.15,939.28,713.86c4.57,2.31,16.66,8.29,36.71,16.53a979.75,979.75,0,0,0,109.3-6.14,770.8,770.8,0,0,0,97.21-17.13,127.78,127.78,0,0,0-10.91-9.6C1161.22,689.4,1116.6,654.45,1030.81,632.4Z" transform="translate(-386.15 -214.92)"/><path class="cls-9" d="M1021,417c2.61,17.95,14.85,102.23-42.16,159.37-8.64,8.66-42.14,42.25-93.55,42.7-57,.51-93.42-40-101.18-48.68C732.5,513,746.34,435.08,749.55,417c1.49-8.36,5.19-25.41,16.59-51.67,15.55-35.84,48.09-94.19,119.13-150.4,77.05,55.71,108.15,117,121.29,150.4C1016.93,391.66,1020,410.52,1021,417Z" transform="translate(-386.15 -214.92)"/><path class="cls-10" d="M889.43,618.69a9,9,0,0,1-9-8.86l-4.35-262.72a9,9,0,0,1,18-.3l4.35,262.73a9,9,0,0,1-8.85,9.14Z" transform="translate(-386.15 -214.92)"/><path class="cls-10" d="M887.11,446.8l-61.73-45.12A9,9,0,1,1,836,387.15l51.4,37.57L942,387a9,9,0,0,1,10.23,14.81Z" transform="translate(-386.15 -214.92)"/><path class="cls-10" d="M887.42,541.89l-96.94-62.11a9,9,0,1,1,9.71-15.16l86.9,55.68,87.56-59.88a9,9,0,0,1,10.16,14.86Z" transform="translate(-386.15 -214.92)"/><path class="cls-9" d="M1215.21,435.56c1.36,9.32,7.75,53.08-21.83,82.78-4.48,4.5-21.86,22-48.56,22.21-29.59.29-48.53-20.75-52.56-25.23-26.82-29.8-19.67-70.25-18-79.64.76-4.35,2.68-13.2,8.59-26.85,8.06-18.61,24.93-48.93,61.8-78.15,40,28.9,56.21,60.71,63,78.05A121.76,121.76,0,0,1,1215.21,435.56Z" transform="translate(-386.15 -214.92)"/><path class="cls-10" d="M1147.49,540.59a9,9,0,0,1-9-8.84l-2.38-136.43a9,9,0,0,1,8.85-9.16h.16a9,9,0,0,1,9,8.84l2.38,136.43a9,9,0,0,1-8.85,9.16Z" transform="translate(-386.15 -214.92)"/><path class="cls-10" d="M1146.16,456.4l-34.57-25.21a9,9,0,0,1,10.61-14.54l24.23,17.67,25.79-17.85a9,9,0,1,1,10.25,14.8Z" transform="translate(-386.15 -214.92)"/><path class="cls-10" d="M1146.5,505.66l-52.78-33.75a9,9,0,0,1,9.7-15.17l42.74,27.34,43.08-29.52a9,9,0,0,1,10.17,14.85Z" transform="translate(-386.15 -214.92)"/><path class="cls-8" d="M1176.43,589.76c-7.92-4-45.11-22.76-41.3-37.54.58-2.24,2.81-10.93,25.49-12.66,25.13-1.92,56.6,6.14,63.31,7.86,44.56,11.41,67.74,29.54,73.13,33.75a67.54,67.54,0,0,1,12.09,12.27c6.58,8.63,14.1,22.91,3.71,37.93-55.23-10.22-92.14-23.16-110.56-30.33C1187.77,595.38,1179.28,591.2,1176.43,589.76Z" transform="translate(-386.15 -214.92)"/><path class="cls-11" d="M947.09,817" transform="translate(-386.15 -214.92)"/><circle class="cls-12" cx="257.85" cy="639.08" r="11"/><circle class="cls-12" cx="287.85" cy="655.08" r="11"/><circle class="cls-12" cx="296.85" cy="626.08" r="11"/><path class="cls-13" d="M697,587" transform="translate(-386.15 -214.92)"/><path class="cls-13" d="M697,587" transform="translate(-386.15 -214.92)"/><path class="cls-13" d="M686,573" transform="translate(-386.15 -214.92)"/><path class="cls-14" d="M668,607.5h-.29A3.5,3.5,0,0,1,664.5,604V583a3.5,3.5,0,0,1,7,0v6.39a21.51,21.51,0,0,1,11.32-6.32,3.5,3.5,0,0,1,1.36,6.86c-6.25,1.23-11.48,7.26-12.73,14.65A3.5,3.5,0,0,1,668,607.5Z" transform="translate(-386.15 -214.92)"/><path class="cls-14" d="M668.5,607a3.5,3.5,0,0,1-3.46-3c-1.09-7.29-6.16-13.2-12-14.06a3.5,3.5,0,1,1,1-6.92c9,1.31,16.4,9.51,18,19.94a3.5,3.5,0,0,1-2.94,4A3.12,3.12,0,0,1,668.5,607Z" transform="translate(-386.15 -214.92)"/><path class="cls-14" d="M716.4,541.5h-.3a3.51,3.51,0,0,1-3.21-3.49V521.5a3.5,3.5,0,0,1,7,0v3.28a17.39,17.39,0,0,1,8-4,3.5,3.5,0,1,1,1.35,6.86c-4.61.91-8.48,5.39-9.41,10.9A3.49,3.49,0,0,1,716.4,541.5Z" transform="translate(-386.15 -214.92)"/><path class="cls-14" d="M716.78,541.11a3.51,3.51,0,0,1-3.46-3c-.81-5.41-4.52-9.79-8.83-10.42a3.5,3.5,0,0,1,1-6.92c7.4,1.08,13.46,7.78,14.74,16.3a3.51,3.51,0,0,1-3,4A4.55,4.55,0,0,1,716.78,541.11Z" transform="translate(-386.15 -214.92)"/><path class="cls-14" d="M1156.5,627h-.29a3.5,3.5,0,0,1-3.21-3.49v-21a3.5,3.5,0,0,1,7,0v6.39a21.5,21.5,0,0,1,11.33-6.32,3.49,3.49,0,0,1,1.34,6.86c-6.24,1.23-11.47,7.26-12.72,14.65A3.5,3.5,0,0,1,1156.5,627Z" transform="translate(-386.15 -214.92)"/><path class="cls-14" d="M1157,626.5a3.5,3.5,0,0,1-3.46-3c-1.09-7.29-6.16-13.2-12-14.06a3.5,3.5,0,1,1,1-6.92c9,1.31,16.4,9.51,18,19.94a3.5,3.5,0,0,1-2.94,4A3.12,3.12,0,0,1,1157,626.5Z" transform="translate(-386.15 -214.92)"/><path class="cls-14" d="M1052.5,544h-.29a3.5,3.5,0,0,1-3.21-3.49v-21a3.5,3.5,0,0,1,7,0v6.39a21.5,21.5,0,0,1,11.33-6.32,3.49,3.49,0,1,1,1.34,6.86c-6.24,1.23-11.47,7.26-12.72,14.65A3.5,3.5,0,0,1,1052.5,544Z" transform="translate(-386.15 -214.92)"/><path class="cls-14" d="M1053,543.5a3.5,3.5,0,0,1-3.46-3c-1.09-7.29-6.16-13.2-12-14.06a3.5,3.5,0,1,1,1-6.92c9,1.31,16.4,9.51,18,19.94a3.5,3.5,0,0,1-2.94,4A3.12,3.12,0,0,1,1053,543.5Z" transform="translate(-386.15 -214.92)"/><path class="cls-14" d="M1303.5,574h-.29a3.5,3.5,0,0,1-3.21-3.49v-21a3.5,3.5,0,0,1,7,0v6.39a21.5,21.5,0,0,1,11.33-6.32,3.49,3.49,0,0,1,1.34,6.86c-6.24,1.23-11.47,7.26-12.72,14.65A3.5,3.5,0,0,1,1303.5,574Z" transform="translate(-386.15 -214.92)"/><path class="cls-14" d="M1304,573.5a3.5,3.5,0,0,1-3.46-3c-1.09-7.29-6.16-13.2-12-14.06a3.5,3.5,0,1,1,1-6.92c9,1.31,16.4,9.51,18,19.94a3.5,3.5,0,0,1-2.94,4A3.12,3.12,0,0,1,1304,573.5Z" transform="translate(-386.15 -214.92)"/><circle class="cls-15" cx="665.35" cy="294.58" r="8.5"/><circle class="cls-16" cx="770.35" cy="375.58" r="8.5"/><circle class="cls-12" cx="916.85" cy="507.08" r="7"/><circle class="cls-12" cx="917.35" cy="482.58" r="5.5"/><circle class="cls-12" cx="900.35" cy="493.58" r="5.5"/></svg>